<svg xmlns="http://www.w3.org/2000/svg" viewBox="0 0 36 36" width="36" height="36" aria-hidden="true">
  <path fill="#FFDC5D" d="M31.285 24.328l-8.203-8.203c-1.396-1.396-3.66-1.396-5.056 0-1.396 1.396-1.396 3.66 0 5.056l3.148 3.147-7.172-7.171c-1.396-1.396-3.66-1.396-5.056 0-1.396 1.396-1.396 3.66 0 5.056l7.172 7.172-5.118-5.118c-1.396-1.396-3.66-1.396-5.056 0-1.396 1.396-1.396 3.66 0 5.056l7.172 7.172-2.062-2.062c-1.396-1.396-3.66-1.396-5.056 0-1.396 1.396-1.396 3.66 0 5.056l10.254 10.254c5.584 5.584 14.639 5.584 20.223 0 5.584-5.584 5.584-14.639 0-20.223l-10.246-10.254z"/>
  <path fill="#F4900C" d="M11.83 17.156c-.465 0-.931-.178-1.285-.532-1.396-1.396-1.396-3.66 0-5.056l6.15-6.15c1.396-1.396 3.66-1.396 5.056 0 1.396 1.396 1.396 3.66 0 5.056l-6.15 6.15c-.354.354-.82.532-1.285.532z"/>
</svg>